<?xml version="1.0" encoding="utf-8"?><!-- Uploaded to: SVG Repo, www.svgrepo.com, Generator: SVG Repo Mixer Tools -->
<svg width="800px" height="800px" viewBox="0 0 24 24" fill="none" xmlns="http://www.w3.org/2000/svg">
<path d="M12 3V9M12 3L9.5 5.5M12 3L14.5 5.5M5.82333 9.00037C6.2383 9.36683 6.5 9.90285 6.5 10.5C6.5 11.6046 5.60457 12.5 4.5 12.5C3.90285 12.5 3.36683 12.2383 3.00037 11.8233M5.82333 9.00037C5.94144 9 6.06676 9 6.2 9H8M5.82333 9.00037C4.94852 9.00308 4.46895 9.02593 4.09202 9.21799C3.71569 9.40973 3.40973 9.71569 3.21799 10.092C3.02593 10.469 3.00308 10.9485 3.00037 11.8233M3.00037 11.8233C3 11.9414 3 12.0668 3 12.2V17.8C3 17.9332 3 18.0586 3.00037 18.1767M3.00037 18.1767C3.36683 17.7617 3.90285 17.5 4.5 17.5C5.60457 17.5 6.5 18.3954 6.5 19.5C6.5 20.0971 6.2383 20.6332 5.82333 20.9996M3.00037 18.1767C3.00308 19.0515 3.02593 19.5311 3.21799 19.908C3.40973 20.2843 3.71569 20.5903 4.09202 20.782C4.46895 20.9741 4.94852 20.9969 5.82333 20.9996M5.82333 20.9996C5.94144 21 6.06676 21 6.2 21H17.8C17.9332 21 18.0586 21 18.1767 20.9996M21 18.1771C20.6335 17.7619 20.0973 17.5 19.5 17.5C18.3954 17.5 17.5 18.3954 17.5 19.5C17.5 20.0971 17.7617 20.6332 18.1767 20.9996M21 18.1771C21.0004 18.0589 21 17.9334 21 17.8V12.2C21 12.0668 21 11.9414 20.9996 11.8233M21 18.1771C20.9973 19.0516 20.974 19.5311 20.782 19.908C20.5903 20.2843 20.2843 20.5903 19.908 20.782C19.5311 20.9741 19.0515 20.9969 18.1767 20.9996M20.9996 11.8233C20.6332 12.2383 20.0971 12.5 19.5 12.5C18.3954 12.5 17.5 11.6046 17.5 10.5C17.5 9.90285 17.7617 9.36683 18.1767 9.00037M20.9996 11.8233C20.9969 10.9485 20.9741 10.469 20.782 10.092C20.5903 9.71569 20.2843 9.40973 19.908 9.21799C19.5311 9.02593 19.0515 9.00308 18.1767 9.00037M18.1767 9.00037C18.0586 9 17.9332 9 17.8 9H16M14 15C14 16.1046 13.1046 17 12 17C10.8954 17 10 16.1046 10 15C10 13.8954 10.8954 13 12 13C13.1046 13 14 13.8954 14 15Z" stroke="#000000" stroke-width="2" stroke-linecap="round" stroke-linejoin="round"/>
</svg>