<?xml version="1.0" encoding="iso-8859-1"?>
<!-- Uploaded to: SVG Repo, www.svgrepo.com, Generator: SVG Repo Mixer Tools -->
<svg fill="#000000" version="1.1" id="Layer_1" xmlns="http://www.w3.org/2000/svg" xmlns:xlink="http://www.w3.org/1999/xlink" 
	 viewBox="0 0 512 512" xml:space="preserve">
<g>
	<g>
		<rect x="312.016" y="295.693" width="15.706" height="95.28"/>
	</g>
</g>
<g>
	<g>
		<rect x="320.393" y="464.266" width="15.706" height="15.706"/>
	</g>
</g>
<g>
	<g>
		<polygon points="0,0.428 0,288.363 104.703,288.363 104.703,272.657 15.706,272.657 15.706,16.134 496.294,16.134 
			496.294,272.657 225.112,272.657 225.112,288.363 512,288.363 512,0.428 		"/>
	</g>
</g>
<g>
	<g>
		<path d="M192.654,255.905h287.935V31.839H31.411v224.065h73.292v-15.706H47.117V47.545h152.811
			c-8.206,4.861-15.73,10.458-22.409,16.753H88.998v7.853c0,7.778-2.275,15.182-17.276,15.182h-7.853v112.033h7.853
			c11.486,0,17.276,5.068,17.276,16.229v7.853h23.836v122.158l24.044,40.072v14.016h-24.044v111.88h256.141v-111.88H152.583v-18.365
			l-24.044-40.072V216.117h23.281v-49.211h-15.706v33.505h-7.575v-64.883c22.883,3.76,40.396,23.678,40.396,47.61v96.012h15.867
			c13.347,0,24.205,10.859,24.205,24.205v32.058h15.706v-32.058c0-22.008-17.904-39.911-39.911-39.911h-0.161v-33.73
			c4.588,3.891,9.441,7.408,14.544,10.484h-6.53V255.905z M353.268,415.397v80.469H128.539v-80.469H353.268z M464.883,47.545
			v192.654h-150.41c7.821-4.704,15.017-10.346,21.448-16.753h89.174v-7.853c0-10.698,5.379-16.229,15.182-16.229h7.853V87.332
			h-7.853c-13.627,0-15.182-8.752-15.182-15.182v-7.853h-89.543c-6.507-6.421-13.784-12.063-21.693-16.753H464.883z
			 M349.062,207.741c12.544-18.104,19.914-40.053,19.914-63.688c0-23.794-7.469-45.877-20.168-64.05h61.314
			c2.388,11.835,10.37,19.742,22.305,22.097v82.047c-11.71,2.64-19.901,11.29-22.317,23.595H349.062z M145.996,124.418
			c-7.767-3.361-16.323-5.233-25.311-5.233h-7.852v88.556h-9.052c-2.459-12.842-11.149-21.372-24.207-23.758v-81.741
			c13.316-2.121,21.768-9.897,24.196-22.239h59.955C154.53,92.815,148.314,107.678,145.996,124.418z M184.641,207.787v-14.631
			c15.905,22.886,42.371,37.909,72.292,37.909c48.522,0,87.997-39.475,87.997-87.998c0-48.523-39.475-87.998-87.997-87.998
			c-47.924,0-86.996,38.515-87.953,86.215c-2.397-2.761-5.015-5.323-7.845-7.64c5.103-48.534,46.118-85.986,95.798-85.986
			c28.52,0,54.181,12.497,71.835,32.288v0.058h0.05c15.198,17.065,24.449,39.538,24.449,64.11c0,24.372-9.115,46.644-24.093,63.628
			h-0.406v0.455c-16.216,18.157-39.177,30.168-64.92,32.003h-13.798C224.743,238.424,201.444,226.89,184.641,207.787z
			 M184.641,143.067c0-39.862,32.431-72.293,72.293-72.293c39.862,0,72.291,32.431,72.291,72.293
			c0,39.862-32.43,72.292-72.291,72.292C217.072,215.359,184.641,182.928,184.641,143.067z"/>
	</g>
</g>
<g>
	<g>
		<path d="M263.977,131.035c-10.683-4.024-15.09-6.66-15.09-10.817c0-3.514,2.646-7.036,10.817-7.036
			c9.047,0,14.831,2.888,18.103,4.273l3.647-14.205c-4.148-2.011-9.807-3.772-18.236-4.148V88.035h-12.319v11.944
			c-13.446,2.645-21.241,11.317-21.241,22.376c0,12.201,9.173,18.486,22.626,23.011c9.306,3.146,13.329,6.16,13.329,10.933
			c0,5.033-4.907,7.796-12.068,7.796c-8.171,0-15.59-2.637-20.874-5.533l-3.772,14.714c4.782,2.763,12.953,5.025,21.374,5.401
			v11.942h12.319v-12.82c14.455-2.512,22.376-12.068,22.376-23.261C284.968,143.228,278.934,136.31,263.977,131.035z"/>
	</g>
</g>
<g>
	<g>
		<rect x="441.849" y="55.922" width="15.706" height="15.706"/>
	</g>
</g>
<g>
	<g>
		<rect x="441.849" y="216.118" width="15.706" height="15.706"/>
	</g>
</g>
<g>
	<g>
		<rect x="56.54" y="55.922" width="15.706" height="15.706"/>
	</g>
</g>
<g>
	<g>
		<rect x="56.54" y="216.118" width="15.706" height="15.706"/>
	</g>
</g>
</svg>